<?xml version="1.0" encoding="utf-8"?>
<!-- Generator: Adobe Illustrator 16.0.4, SVG Export Plug-In . SVG Version: 6.00 Build 0)  -->
<!DOCTYPE svg PUBLIC "-//W3C//DTD SVG 1.1//EN" "http://www.w3.org/Graphics/SVG/1.1/DTD/svg11.dtd">
<svg version="1.1" id="Ebene_1" xmlns="http://www.w3.org/2000/svg" xmlns:xlink="http://www.w3.org/1999/xlink" x="0px" y="0px"
	 width="595.28px" height="56.69px" viewBox="0 0 595.28 56.69" enable-background="new 0 0 595.28 56.69" xml:space="preserve">
<rect x="-8.489" y="9.89" fill="#FFED00" width="452.715" height="28.664"/>
<g>
	<defs>
		<rect id="SVGID_1_" x="453.13" y="3.114" width="110.289" height="50.218"/>
	</defs>
	<clipPath id="SVGID_2_">
		<use xlink:href="#SVGID_1_"  overflow="visible"/>
	</clipPath>
	<path clip-path="url(#SVGID_2_)" fill-rule="evenodd" clip-rule="evenodd" fill="#FFED00" d="M538.486,15.335h6.905
		c1.553,0,2.729,1.652,2.554,3.086c-0.188,1.539-1.203,2.868-3.678,2.868h-7.219L538.486,15.335z M525.852,38.574h16.913
		c6.208,0,10.921-2.859,10.921-8.607c0-2.161-0.723-4.814-3.32-6.104c3.508-0.929,5.333-3.845,5.333-7.253
		c0-3.467-2.039-6.753-8.059-6.753h-15.211L525.852,38.574z M536.021,26.151h7.651c2.281,0,3.439,1.65,3.203,3.281
		c-0.193,1.324-1.42,3.173-4.129,3.173h-8.292L536.021,26.151z"/>
	<path clip-path="url(#SVGID_2_)" fill-rule="evenodd" clip-rule="evenodd" fill="#FFED00" d="M478.216,38.574l17.661-28.699h7.34
		l6.053,28.699h-8.256l-0.777-4.599H488.9l-2.836,4.599H478.216z M492.119,28.764l5.822-9.65l1.565,9.65H492.119z"/>
	<path clip-path="url(#SVGID_2_)" fill="#E30613" d="M457.424,43.7h1.469l2.199,6.214h-1.409l-0.409-1.277h-2.288l-0.422,1.277
		h-1.358L457.424,43.7z M457.338,47.566h1.592l-0.785-2.445L457.338,47.566z"/>
	<path clip-path="url(#SVGID_2_)" fill="#E30613" d="M464.252,45.211c0.015,0.001,0.05,0.003,0.103,0.007v1.23
		c-0.076-0.008-0.143-0.014-0.202-0.016c-0.059-0.003-0.106-0.005-0.143-0.005c-0.484,0-0.81,0.157-0.975,0.473
		c-0.093,0.177-0.139,0.449-0.139,0.817v2.196h-1.21v-4.596h1.146v0.802c0.186-0.307,0.347-0.516,0.484-0.629
		c0.226-0.188,0.518-0.282,0.877-0.282C464.218,45.209,464.236,45.21,464.252,45.211"/>
	<path clip-path="url(#SVGID_2_)" fill="#E30613" d="M468.896,45.872c0.344,0.435,0.516,0.997,0.516,1.686
		c0,0.714-0.17,1.306-0.509,1.775c-0.339,0.469-0.812,0.704-1.419,0.704c-0.382,0-0.688-0.076-0.92-0.229
		c-0.138-0.089-0.288-0.247-0.449-0.472v0.578h-1.185v-6.206h1.202v2.209c0.151-0.214,0.32-0.377,0.505-0.489
		c0.218-0.141,0.495-0.211,0.831-0.211C468.077,45.218,468.554,45.436,468.896,45.872 M467.893,48.671
		c0.173-0.25,0.259-0.579,0.259-0.987c0-0.326-0.042-0.595-0.127-0.809c-0.162-0.405-0.459-0.607-0.893-0.607
		c-0.439,0-0.741,0.198-0.905,0.594c-0.085,0.211-0.128,0.484-0.128,0.818c0,0.394,0.088,0.72,0.264,0.979
		c0.175,0.259,0.443,0.388,0.803,0.388C467.478,49.046,467.72,48.921,467.893,48.671"/>
	<path clip-path="url(#SVGID_2_)" fill="#E30613" d="M473.372,45.412c0.319,0.144,0.585,0.37,0.794,0.68
		c0.188,0.273,0.31,0.589,0.366,0.95c0.031,0.211,0.046,0.515,0.04,0.912h-3.349c0.02,0.461,0.179,0.784,0.481,0.97
		c0.184,0.115,0.403,0.173,0.662,0.173c0.273,0,0.497-0.069,0.668-0.211c0.093-0.076,0.175-0.182,0.247-0.315h1.227
		c-0.033,0.271-0.181,0.549-0.446,0.83c-0.411,0.446-0.987,0.671-1.729,0.671c-0.611,0-1.151-0.189-1.618-0.566
		c-0.468-0.377-0.702-0.99-0.702-1.84c0-0.796,0.211-1.406,0.633-1.831s0.971-0.637,1.645-0.637
		C472.69,45.197,473.051,45.268,473.372,45.412 M471.574,46.45c-0.171,0.175-0.277,0.412-0.32,0.711h2.07
		c-0.022-0.319-0.129-0.562-0.32-0.727c-0.192-0.165-0.429-0.248-0.713-0.248C471.982,46.187,471.744,46.275,471.574,46.45"/>
	<path clip-path="url(#SVGID_2_)" fill="#E30613" d="M476.328,44.771h-1.218v-1.108h1.218V44.771z M475.109,45.318h1.218v4.596
		h-1.218V45.318z"/>
	<path clip-path="url(#SVGID_2_)" fill="#E30613" d="M476.977,46.217v-0.855h0.641v-1.282h1.189v1.282h0.746v0.855h-0.746v2.428
		c0,0.189,0.023,0.307,0.07,0.353c0.049,0.047,0.194,0.07,0.439,0.07c0.036,0,0.075,0,0.116-0.003
		c0.041-0.001,0.081-0.003,0.12-0.006v0.898l-0.569,0.021c-0.568,0.02-0.956-0.079-1.164-0.295c-0.135-0.138-0.202-0.35-0.202-0.637
		v-2.829H476.977z"/>
	<path clip-path="url(#SVGID_2_)" fill="#E30613" d="M483.318,45.412c0.32,0.144,0.586,0.37,0.795,0.68
		c0.188,0.273,0.31,0.589,0.366,0.95c0.031,0.211,0.045,0.515,0.039,0.912h-3.348c0.02,0.461,0.18,0.784,0.481,0.97
		c0.183,0.115,0.403,0.173,0.662,0.173c0.273,0,0.497-0.069,0.667-0.211c0.094-0.076,0.176-0.182,0.248-0.315h1.227
		c-0.033,0.271-0.181,0.549-0.446,0.83c-0.412,0.446-0.987,0.671-1.729,0.671c-0.611,0-1.151-0.189-1.618-0.566
		c-0.468-0.377-0.702-0.99-0.702-1.84c0-0.796,0.211-1.406,0.633-1.831s0.971-0.637,1.645-0.637
		C482.638,45.197,482.998,45.268,483.318,45.412 M481.521,46.45c-0.17,0.175-0.277,0.412-0.32,0.711h2.07
		c-0.022-0.319-0.129-0.562-0.32-0.727c-0.192-0.165-0.429-0.248-0.713-0.248C481.93,46.187,481.691,46.275,481.521,46.45"/>
	<path clip-path="url(#SVGID_2_)" fill="#E30613" d="M487.679,45.211c0.016,0.001,0.05,0.003,0.104,0.007v1.23
		c-0.076-0.008-0.144-0.014-0.202-0.016c-0.059-0.003-0.107-0.005-0.143-0.005c-0.484,0-0.81,0.157-0.976,0.473
		c-0.092,0.177-0.139,0.449-0.139,0.817v2.196h-1.21v-4.596h1.146v0.802c0.187-0.307,0.348-0.516,0.485-0.629
		c0.225-0.188,0.517-0.282,0.877-0.282C487.644,45.209,487.664,45.21,487.679,45.211"/>
	<rect x="488.037" y="46.938" clip-path="url(#SVGID_2_)" fill="#E30613" width="2.353" height="1.14"/>
	<path clip-path="url(#SVGID_2_)" fill="#E30613" d="M492.309,47.996c0.04,0.284,0.119,0.496,0.236,0.637
		c0.216,0.256,0.584,0.383,1.106,0.383c0.312,0,0.567-0.032,0.762-0.101c0.37-0.129,0.556-0.369,0.556-0.721
		c0-0.205-0.091-0.364-0.272-0.477c-0.181-0.109-0.469-0.207-0.863-0.291l-0.672-0.147c-0.662-0.146-1.116-0.306-1.363-0.477
		c-0.419-0.287-0.628-0.734-0.628-1.345c0-0.557,0.204-1.019,0.614-1.387s1.012-0.554,1.806-0.554c0.663,0,1.229,0.175,1.696,0.521
		s0.714,0.851,0.736,1.512h-1.248c-0.023-0.374-0.19-0.64-0.501-0.797c-0.207-0.104-0.465-0.156-0.774-0.156
		c-0.343,0-0.615,0.067-0.82,0.202s-0.308,0.323-0.308,0.565c0,0.222,0.102,0.388,0.303,0.498c0.131,0.072,0.405,0.158,0.826,0.257
		l1.09,0.257c0.479,0.112,0.837,0.263,1.075,0.451c0.37,0.293,0.557,0.715,0.557,1.269c0,0.568-0.221,1.039-0.659,1.415
		c-0.439,0.375-1.06,0.563-1.86,0.563c-0.817,0-1.462-0.186-1.931-0.555c-0.468-0.369-0.703-0.878-0.703-1.524H492.309z"/>
	<path clip-path="url(#SVGID_2_)" fill="#E30613" d="M498.854,47.119c0.225-0.028,0.384-0.063,0.48-0.105
		c0.173-0.073,0.259-0.187,0.259-0.342c0-0.188-0.066-0.318-0.199-0.39c-0.132-0.071-0.327-0.107-0.583-0.107
		c-0.288,0-0.491,0.07-0.61,0.21c-0.087,0.105-0.144,0.245-0.172,0.422h-1.159c0.025-0.401,0.139-0.731,0.339-0.991
		c0.318-0.403,0.867-0.606,1.643-0.606c0.506,0,0.954,0.1,1.347,0.3c0.393,0.199,0.589,0.576,0.589,1.13v2.108
		c0,0.146,0.003,0.323,0.009,0.531c0.008,0.156,0.032,0.264,0.071,0.319c0.039,0.058,0.099,0.104,0.177,0.14v0.177h-1.308
		c-0.035-0.092-0.061-0.179-0.074-0.261c-0.016-0.081-0.026-0.175-0.034-0.278c-0.167,0.18-0.359,0.333-0.577,0.459
		c-0.26,0.149-0.554,0.224-0.882,0.224c-0.418,0-0.765-0.119-1.037-0.355c-0.273-0.238-0.409-0.575-0.409-1.01
		c0-0.565,0.219-0.975,0.658-1.228c0.241-0.138,0.595-0.236,1.062-0.295L498.854,47.119z M499.59,47.68
		c-0.077,0.048-0.155,0.086-0.233,0.116c-0.078,0.029-0.186,0.057-0.323,0.082l-0.272,0.05c-0.257,0.046-0.441,0.101-0.553,0.165
		c-0.189,0.11-0.283,0.28-0.283,0.51c0,0.206,0.057,0.354,0.173,0.445c0.116,0.092,0.256,0.137,0.422,0.137
		c0.262,0,0.504-0.075,0.726-0.228c0.222-0.151,0.336-0.428,0.345-0.83V47.68z"/>
	<path clip-path="url(#SVGID_2_)" fill="#E30613" d="M507.571,45.336c0.196,0.079,0.375,0.217,0.535,0.413
		c0.13,0.159,0.217,0.356,0.262,0.59c0.027,0.154,0.042,0.381,0.042,0.679l-0.008,2.897h-1.231v-2.927
		c0-0.175-0.029-0.317-0.085-0.43c-0.107-0.214-0.303-0.321-0.59-0.321c-0.332,0-0.562,0.139-0.688,0.413
		c-0.064,0.147-0.097,0.322-0.097,0.527v2.737h-1.21v-2.737c0-0.272-0.029-0.47-0.085-0.594c-0.102-0.223-0.299-0.333-0.594-0.333
		c-0.344,0-0.574,0.11-0.692,0.333c-0.064,0.126-0.097,0.314-0.097,0.564v2.767h-1.219v-4.588h1.169v0.671
		c0.148-0.239,0.288-0.409,0.421-0.511c0.233-0.18,0.535-0.27,0.906-0.27c0.352,0,0.636,0.077,0.852,0.231
		c0.175,0.144,0.307,0.327,0.396,0.553c0.157-0.271,0.354-0.469,0.586-0.595c0.247-0.127,0.523-0.189,0.826-0.189
		C507.175,45.218,507.374,45.257,507.571,45.336"/>
	<path clip-path="url(#SVGID_2_)" fill="#E30613" d="M511.334,47.119c0.225-0.028,0.385-0.063,0.48-0.105
		c0.173-0.073,0.26-0.187,0.26-0.342c0-0.188-0.066-0.318-0.199-0.39s-0.326-0.107-0.584-0.107c-0.287,0-0.49,0.07-0.61,0.21
		c-0.085,0.105-0.143,0.245-0.171,0.422h-1.159c0.024-0.401,0.138-0.731,0.339-0.991c0.319-0.403,0.866-0.606,1.643-0.606
		c0.505,0,0.954,0.1,1.347,0.3c0.393,0.199,0.589,0.576,0.589,1.13v2.108c0,0.146,0.002,0.323,0.008,0.531
		c0.009,0.156,0.033,0.264,0.072,0.319c0.039,0.058,0.098,0.104,0.177,0.14v0.177h-1.307c-0.036-0.092-0.062-0.179-0.076-0.261
		c-0.015-0.081-0.025-0.175-0.034-0.278c-0.167,0.18-0.359,0.333-0.577,0.459c-0.26,0.149-0.553,0.224-0.882,0.224
		c-0.418,0-0.764-0.119-1.037-0.355c-0.272-0.238-0.409-0.575-0.409-1.01c0-0.565,0.22-0.975,0.659-1.228
		c0.24-0.138,0.594-0.236,1.061-0.295L511.334,47.119z M512.069,47.68c-0.077,0.048-0.154,0.086-0.233,0.116
		c-0.077,0.029-0.186,0.057-0.321,0.082l-0.274,0.05c-0.257,0.046-0.439,0.101-0.552,0.165c-0.189,0.11-0.284,0.28-0.284,0.51
		c0,0.206,0.058,0.354,0.173,0.445c0.116,0.092,0.257,0.137,0.422,0.137c0.264,0,0.504-0.075,0.727-0.228
		c0.221-0.151,0.336-0.428,0.344-0.83V47.68z"/>
	<path clip-path="url(#SVGID_2_)" fill="#E30613" d="M516.869,45.211c0.017,0.001,0.051,0.003,0.104,0.007v1.23
		c-0.076-0.008-0.144-0.014-0.203-0.016c-0.059-0.003-0.106-0.005-0.143-0.005c-0.484,0-0.809,0.157-0.975,0.473
		c-0.093,0.177-0.139,0.449-0.139,0.817v2.196h-1.21v-4.596h1.146v0.802c0.187-0.307,0.348-0.516,0.485-0.629
		c0.225-0.188,0.518-0.282,0.877-0.282C516.836,45.209,516.854,45.21,516.869,45.211"/>
	<path clip-path="url(#SVGID_2_)" fill="#E30613" d="M518.913,44.771h-1.219v-1.108h1.219V44.771z M517.694,45.318h1.219v4.596
		h-1.219V45.318z"/>
	<path clip-path="url(#SVGID_2_)" fill="#E30613" d="M519.604,46.217v-0.855h0.641v-1.282h1.189v1.282h0.745v0.855h-0.745v2.428
		c0,0.189,0.022,0.307,0.07,0.353c0.048,0.047,0.194,0.07,0.439,0.07c0.036,0,0.075,0,0.115-0.003
		c0.041-0.001,0.082-0.003,0.12-0.006v0.898l-0.568,0.021c-0.568,0.02-0.956-0.079-1.164-0.295c-0.135-0.138-0.202-0.35-0.202-0.637
		v-2.829H519.604z"/>
	<path clip-path="url(#SVGID_2_)" fill="#E30613" d="M525.946,45.412c0.32,0.144,0.585,0.37,0.794,0.68
		c0.188,0.273,0.311,0.589,0.366,0.95c0.032,0.211,0.046,0.515,0.04,0.912H523.8c0.018,0.461,0.178,0.784,0.479,0.97
		c0.184,0.115,0.404,0.173,0.662,0.173c0.274,0,0.497-0.069,0.668-0.211c0.094-0.076,0.175-0.182,0.247-0.315h1.228
		c-0.033,0.271-0.182,0.549-0.445,0.83c-0.413,0.446-0.988,0.671-1.73,0.671c-0.61,0-1.15-0.189-1.617-0.566
		c-0.469-0.377-0.701-0.99-0.701-1.84c0-0.796,0.21-1.406,0.632-1.831s0.97-0.637,1.644-0.637
		C525.266,45.197,525.626,45.268,525.946,45.412 M524.148,46.45c-0.169,0.175-0.275,0.412-0.32,0.711h2.07
		c-0.021-0.319-0.128-0.562-0.32-0.727c-0.191-0.165-0.429-0.248-0.713-0.248C524.558,46.187,524.318,46.275,524.148,46.45"/>
	<path clip-path="url(#SVGID_2_)" fill="#E30613" d="M530.307,45.211c0.015,0.001,0.05,0.003,0.104,0.007v1.23
		c-0.075-0.008-0.144-0.014-0.202-0.016c-0.06-0.003-0.107-0.005-0.144-0.005c-0.484,0-0.808,0.157-0.974,0.473
		c-0.093,0.177-0.14,0.449-0.14,0.817v2.196h-1.21v-4.596h1.147v0.802c0.185-0.307,0.347-0.516,0.484-0.629
		c0.225-0.188,0.517-0.282,0.877-0.282C530.271,45.209,530.292,45.21,530.307,45.211"/>
	<rect x="530.665" y="46.938" clip-path="url(#SVGID_2_)" fill="#E30613" width="2.353" height="1.14"/>
	<path clip-path="url(#SVGID_2_)" fill="#E30613" d="M538.635,44.362c0.19,0.264,0.285,0.58,0.285,0.948
		c0,0.38-0.095,0.685-0.287,0.915c-0.107,0.13-0.266,0.246-0.474,0.354c0.317,0.116,0.556,0.298,0.718,0.548
		c0.161,0.25,0.242,0.554,0.242,0.911c0,0.369-0.093,0.699-0.277,0.991c-0.117,0.193-0.264,0.356-0.439,0.489
		c-0.198,0.151-0.434,0.256-0.703,0.312s-0.562,0.084-0.878,0.084h-2.8V43.7h3.003C537.782,43.711,538.319,43.932,538.635,44.362
		 M535.261,44.779v1.37h1.511c0.27,0,0.488-0.052,0.656-0.154c0.169-0.102,0.253-0.284,0.253-0.546c0-0.289-0.11-0.48-0.334-0.573
		c-0.191-0.064-0.437-0.097-0.733-0.097H535.261z M535.261,47.178v1.657h1.51c0.269,0,0.479-0.037,0.629-0.108
		c0.271-0.136,0.409-0.395,0.409-0.776c0-0.324-0.134-0.546-0.396-0.667c-0.148-0.067-0.355-0.103-0.622-0.105H535.261z"/>
	<path clip-path="url(#SVGID_2_)" fill="#E30613" d="M541.164,45.318v2.771c0,0.261,0.03,0.458,0.092,0.59
		c0.108,0.234,0.322,0.351,0.642,0.351c0.409,0,0.688-0.165,0.839-0.497c0.079-0.181,0.118-0.418,0.118-0.714v-2.5h1.218v4.596
		h-1.167v-0.649c-0.012,0.015-0.04,0.058-0.085,0.127c-0.044,0.07-0.098,0.132-0.16,0.186c-0.187,0.169-0.368,0.283-0.544,0.346
		c-0.175,0.062-0.38,0.093-0.615,0.093c-0.679,0-1.136-0.245-1.371-0.733c-0.131-0.27-0.197-0.667-0.197-1.193v-2.771H541.164z"/>
	<path clip-path="url(#SVGID_2_)" fill="#E30613" d="M548.946,45.582c0.302,0.248,0.451,0.661,0.451,1.237v3.095h-1.23v-2.795
		c0-0.242-0.032-0.428-0.097-0.557c-0.117-0.236-0.341-0.354-0.67-0.354c-0.404,0-0.682,0.174-0.832,0.519
		c-0.079,0.183-0.118,0.417-0.118,0.7v2.487h-1.2v-4.587h1.162v0.67c0.154-0.235,0.3-0.405,0.438-0.51
		c0.246-0.186,0.558-0.278,0.936-0.278C548.259,45.209,548.646,45.333,548.946,45.582"/>
	<path clip-path="url(#SVGID_2_)" fill="#E30613" d="M552.952,45.393c0.216,0.122,0.393,0.292,0.527,0.508v-2.192h1.218v6.206
		h-1.168v-0.637c-0.171,0.273-0.366,0.471-0.586,0.595c-0.219,0.124-0.492,0.186-0.818,0.186c-0.536,0-0.987-0.217-1.354-0.651
		c-0.367-0.434-0.55-0.991-0.55-1.672c0-0.784,0.18-1.401,0.542-1.851c0.359-0.449,0.843-0.675,1.448-0.675
		C552.488,45.209,552.735,45.271,552.952,45.393 M553.247,48.666c0.178-0.253,0.266-0.58,0.266-0.981
		c0-0.562-0.143-0.964-0.425-1.206c-0.176-0.146-0.377-0.219-0.607-0.219c-0.352,0-0.61,0.132-0.774,0.397
		c-0.165,0.267-0.247,0.595-0.247,0.989c0,0.424,0.084,0.764,0.252,1.018c0.166,0.254,0.421,0.383,0.761,0.383
		S553.07,48.919,553.247,48.666"/>
	<polygon clip-path="url(#SVGID_2_)" fill="#E30613" points="455.759,39.234 455.759,9.212 485.772,9.212 485.772,22.469 
		475.464,39.232 	"/>
	<rect x="466.624" y="10.564" clip-path="url(#SVGID_2_)" fill="#FFED00" width="8.291" height="27.306"/>
	<polygon clip-path="url(#SVGID_2_)" fill="#FFED00" points="457.118,20.075 457.118,28.366 480.456,28.366 484.415,22.021 
		484.415,20.075 	"/>
	<path clip-path="url(#SVGID_2_)" fill="#E30613" d="M472.673,18.722c-0.523-0.592-1.164-1.035-1.998-1.035
		c-1.602,0-2.85,0.929-2.85,2.624c0,2.786,4.021,5.841,4.021,7.834c0,0.915-0.699,1.479-1.554,1.479
		c-0.713,0-1.688-0.336-1.688-2.341h-0.769v3.292h0.828v-0.823c0.646,0.673,1.225,1.004,1.999,1.004
		c1.444,0,3.055-0.768,3.055-3.056c0-2.814-4.038-5.937-4.038-7.698c0-0.768,0.485-1.268,1.446-1.268c0.862,0,1.61,0.85,1.61,2.326
		h0.726v-3.28h-0.788V18.722z"/>
	<path clip-path="url(#SVGID_2_)" fill="#E30613" d="M490.953,29.42h9.339l-1.978-12.198L490.953,29.42z M493.366,28.062
		l4.198-6.973l1.132,6.973H493.366z"/>
	<path clip-path="url(#SVGID_2_)" fill="#E30613" d="M509.937,38.344l-6.144-29.133h-8.28l-18.475,30.023h9.438l2.837-4.59h10.339
		l0.776,4.59h9.132v0.002h0.966v-0.893H509.937z M501.577,37.883l-0.777-4.597h-12.239l-2.845,4.594h-6.252l16.811-27.316h6.422
		l5.729,27.322"/>
	<path clip-path="url(#SVGID_2_)" fill="#E30613" d="M543.673,25.489h-8.171l-1.889,7.778h9.134c2.913,0,4.521-1.938,4.783-3.74
		c0.146-1.003-0.143-2.008-0.793-2.758C546.023,25.943,544.935,25.489,543.673,25.489 M546.221,29.338
		c-0.131,0.9-1.02,2.574-3.466,2.574h-7.41l1.219-5.069h7.101c0.886,0,1.6,0.283,2.064,0.821
		C546.127,28.123,546.311,28.716,546.221,29.338"/>
	<path clip-path="url(#SVGID_2_)" fill="#E30613" d="M551.835,24.033c2.816-1.276,4.512-4.012,4.512-7.426
		c0-2.088-0.68-3.867-1.967-5.147c-1.514-1.505-3.786-2.255-6.753-2.255h-15.739l-6.676,29.136h-0.679l-0.171,0.894l18.39-0.002
		c7.146,0,11.583-3.553,11.583-9.27C554.335,27.439,553.439,25.349,551.835,24.033 M542.755,37.88h-16.084l6.273-27.317h14.683
		c6.436,0,7.396,3.77,7.396,6.045c0,3.337-1.81,5.81-4.842,6.612l-1.7,0.45l1.576,0.783c2.569,1.275,2.953,3.999,2.953,5.51
		C553.011,34.938,549.179,37.88,542.755,37.88"/>
	<path clip-path="url(#SVGID_2_)" fill="#E30613" d="M548.603,18.5c0.115-0.942-0.222-1.965-0.903-2.732
		c-0.625-0.706-1.443-1.096-2.307-1.096h-7.427l-1.759,7.279h8.061C546.754,21.951,548.334,20.693,548.603,18.5 M539.029,16.03
		h6.363c0.478,0.025,0.946,0.23,1.316,0.649c0.426,0.48,0.647,1.097,0.579,1.66c-0.186,1.518-1.188,2.254-3.007,2.254h-6.355
		L539.029,16.03z"/>
	<path clip-path="url(#SVGID_2_)" fill="#FFED00" d="M504.939,28.852c-0.597,7.256,5.198,11.166,12.801,11.166
		c5.915,0,13.158-3.187,13.158-10.888c0-5.285-4.726-7.193-8.571-7.941c-3.754-0.73-6.705-1.304-6.705-3.802
		c0-2.035,1.997-3.15,4.479-3.15c2.69,0,4.944,1.115,4.944,3.06h7.6c0.493-5.235-5.993-8.868-11.833-8.868
		c-7.478,0-13.123,4.295-13.123,9.485c0,5.314,2.189,7.486,9.168,9.176c3.113,0.755,5.5,1.225,5.5,3.488
		c0,2.104-1.748,3.78-4.141,3.78c-3.956,0-5.645-2.436-5.645-5.506H504.939z"/>
	<path clip-path="url(#SVGID_2_)" fill="#E30613" d="M517.74,40.679c-4.687,0-8.58-1.426-10.967-4.016
		c-1.887-2.048-2.748-4.768-2.493-7.866l0.061-0.734h8.895v0.789c0,1.809,0.646,4.844,4.981,4.844c1.983,0,3.479-1.34,3.479-3.118
		c0-1.569-1.571-2.021-4.582-2.745l-0.412-0.099c-3.799-0.92-6.046-1.938-7.514-3.404c-1.493-1.494-2.16-3.472-2.16-6.416
		c0-5.69,6.055-10.146,13.784-10.146c4.084,0,8.227,1.651,10.555,4.209c1.449,1.593,2.12,3.453,1.938,5.383l-0.056,0.6h-8.865
		v-0.662c0-1.647-2.22-2.397-4.282-2.397c-1.762,0-3.817,0.651-3.817,2.488c0,1.861,2.228,2.386,6.166,3.151
		c5.962,1.159,9.11,4.13,9.11,8.591c0,3.71-1.606,6.78-4.646,8.877C524.451,39.705,521.107,40.679,517.74,40.679 M505.564,29.582
		c-0.079,2.491,0.654,4.523,2.184,6.183c2.132,2.315,5.68,3.591,9.992,3.591c6.019,0,12.497-3.2,12.497-10.227
		c0-3.8-2.704-6.254-8.036-7.291c-3.888-0.756-7.241-1.408-7.241-4.451c0-2.279,2.066-3.812,5.142-3.812
		c2.957,0,5.115,1.193,5.532,3.024h6.376c-0.024-1.345-0.568-2.574-1.622-3.731c-2.056-2.259-5.903-3.777-9.575-3.777
		c-3.443,0-6.631,0.948-8.974,2.668c-2.248,1.651-3.486,3.837-3.486,6.155c0,4.992,1.942,6.906,8.66,8.533l0.411,0.099
		c3.003,0.724,5.596,1.348,5.596,4.032c0,2.491-2.109,4.442-4.803,4.442c-3.718,0-6.025-2.138-6.283-5.601h-6.369V29.582z"/>
</g>
<g>
	<g>
		<path fill="#E30613" d="M375.914,16.048l0.903,3.916l0.196,1.09l0.197-1.067l0.772-3.938h1.508l0.812,3.915l0.208,1.091
			l0.211-1.048l0.911-3.958h1.455l-1.924,6.838h-1.368l-0.825-3.998l-0.241-1.322l-0.241,1.322l-0.826,3.998h-1.327l-1.938-6.838
			H375.914z"/>
		<path fill="#E30613" d="M385.033,17.227h-1.341v-1.22h1.341V17.227z M383.692,17.829h1.341v5.057h-1.341V17.829z"/>
		<path fill="#E30613" d="M389.036,17.711c0.017,0.002,0.055,0.004,0.113,0.007v1.355c-0.083-0.01-0.157-0.016-0.223-0.02
			c-0.064-0.003-0.117-0.004-0.157-0.004c-0.532,0-0.89,0.173-1.071,0.52c-0.103,0.194-0.153,0.494-0.153,0.899v2.417h-1.331v-5.057
			h1.262v0.882c0.203-0.337,0.382-0.567,0.533-0.691c0.247-0.207,0.568-0.311,0.965-0.311
			C388.998,17.709,389.019,17.71,389.036,17.711z"/>
		<path fill="#E30613" d="M396.018,17.857c0.254,0.108,0.462,0.274,0.626,0.497c0.138,0.188,0.223,0.383,0.254,0.583
			c0.03,0.199,0.046,0.525,0.046,0.977v2.972h-1.35v-3.079c0-0.272-0.046-0.492-0.139-0.659c-0.119-0.235-0.347-0.354-0.682-0.354
			c-0.347,0-0.609,0.117-0.789,0.352c-0.18,0.233-0.27,0.566-0.27,1v2.74h-1.322v-6.814h1.322v2.412
			c0.19-0.294,0.412-0.498,0.663-0.614s0.515-0.174,0.792-0.174C395.48,17.695,395.764,17.749,396.018,17.857z"/>
		<path fill="#E30613" d="M401.396,17.932c0.353,0.158,0.644,0.407,0.873,0.748c0.207,0.301,0.342,0.649,0.403,1.046
			c0.035,0.232,0.05,0.566,0.043,1.003h-3.683c0.021,0.508,0.197,0.863,0.529,1.067c0.202,0.127,0.444,0.189,0.729,0.189
			c0.302,0,0.546-0.077,0.734-0.231c0.103-0.083,0.193-0.199,0.272-0.348h1.35c-0.036,0.3-0.199,0.604-0.49,0.913
			c-0.453,0.492-1.087,0.738-1.902,0.738c-0.673,0-1.267-0.208-1.781-0.622c-0.514-0.415-0.771-1.09-0.771-2.024
			c0-0.876,0.232-1.548,0.696-2.015c0.465-0.468,1.067-0.701,1.809-0.701C400.646,17.695,401.042,17.774,401.396,17.932z
			 M399.417,19.074c-0.187,0.192-0.304,0.453-0.352,0.782h2.277c-0.024-0.351-0.142-0.617-0.353-0.799
			c-0.21-0.182-0.472-0.272-0.784-0.272C399.867,18.785,399.604,18.882,399.417,19.074z"/>
		<path fill="#E30613" d="M404.639,22.886h-1.322v-6.838h1.322V22.886z"/>
		<path fill="#E30613" d="M407.935,15.985c0.068,0.005,0.161,0.012,0.278,0.021v1.076c-0.074-0.01-0.199-0.017-0.373-0.021
			c-0.175-0.004-0.296,0.034-0.362,0.116s-0.1,0.173-0.1,0.271s0,0.241,0,0.427h0.867v0.933h-0.867v4.077h-1.312v-4.077h-0.742
			v-0.933h0.724v-0.324c0-0.542,0.091-0.914,0.273-1.118c0.191-0.304,0.654-0.455,1.387-0.455
			C407.791,15.979,407.866,15.981,407.935,15.985z"/>
		<path fill="#E30613" d="M412.207,17.932c0.353,0.158,0.644,0.407,0.873,0.748c0.207,0.301,0.342,0.649,0.403,1.046
			c0.035,0.232,0.05,0.566,0.043,1.003h-3.683c0.021,0.508,0.197,0.863,0.529,1.067c0.202,0.127,0.444,0.189,0.729,0.189
			c0.302,0,0.546-0.077,0.734-0.231c0.103-0.083,0.193-0.199,0.272-0.348h1.35c-0.036,0.3-0.199,0.604-0.49,0.913
			c-0.453,0.492-1.087,0.738-1.902,0.738c-0.673,0-1.267-0.208-1.781-0.622c-0.514-0.415-0.771-1.09-0.771-2.024
			c0-0.876,0.232-1.548,0.696-2.015c0.465-0.468,1.067-0.701,1.809-0.701C411.458,17.695,411.854,17.774,412.207,17.932z
			 M410.229,19.074c-0.187,0.192-0.304,0.453-0.352,0.782h2.277c-0.024-0.351-0.142-0.617-0.353-0.799
			c-0.21-0.182-0.472-0.272-0.784-0.272C410.679,18.785,410.416,18.882,410.229,19.074z"/>
		<path fill="#E30613" d="M418.178,18.119c0.331,0.274,0.496,0.728,0.496,1.362v3.404h-1.354v-3.075
			c0-0.267-0.035-0.471-0.105-0.612c-0.129-0.26-0.375-0.39-0.737-0.39c-0.444,0-0.75,0.19-0.916,0.57
			c-0.086,0.201-0.129,0.458-0.129,0.771v2.736h-1.322v-5.047h1.28v0.737c0.17-0.26,0.33-0.446,0.48-0.562
			c0.271-0.203,0.614-0.306,1.03-0.306C417.421,17.709,417.847,17.846,418.178,18.119z"/>
	</g>
	<g>
		<path fill="#E30613" d="M378.512,27.357c0.254,0.108,0.462,0.274,0.626,0.497c0.138,0.188,0.223,0.383,0.254,0.583
			c0.03,0.199,0.046,0.525,0.046,0.977v2.972h-1.35v-3.079c0-0.272-0.046-0.492-0.139-0.659c-0.119-0.235-0.347-0.354-0.682-0.354
			c-0.347,0-0.609,0.117-0.789,0.352c-0.18,0.233-0.27,0.566-0.27,1v2.74h-1.322v-6.814h1.322v2.412
			c0.19-0.294,0.412-0.498,0.663-0.614s0.515-0.174,0.792-0.174C377.975,27.195,378.258,27.249,378.512,27.357z"/>
		<path fill="#E30613" d="M381.955,26.727h-1.341v-1.22h1.341V26.727z M380.614,27.329h1.341v5.057h-1.341V27.329z"/>
		<path fill="#E30613" d="M386.444,27.432c0.353,0.158,0.644,0.407,0.873,0.748c0.207,0.301,0.342,0.649,0.403,1.046
			c0.035,0.232,0.05,0.566,0.043,1.003h-3.683c0.021,0.508,0.197,0.863,0.529,1.067c0.202,0.127,0.444,0.189,0.729,0.189
			c0.302,0,0.546-0.077,0.734-0.231c0.103-0.083,0.193-0.199,0.272-0.348h1.35c-0.036,0.3-0.199,0.604-0.49,0.913
			c-0.453,0.492-1.087,0.738-1.902,0.738c-0.673,0-1.267-0.208-1.781-0.622c-0.514-0.415-0.771-1.09-0.771-2.024
			c0-0.876,0.232-1.548,0.696-2.015c0.465-0.468,1.067-0.701,1.809-0.701C385.695,27.195,386.091,27.274,386.444,27.432z
			 M384.466,28.574c-0.187,0.192-0.304,0.453-0.352,0.782h2.277c-0.024-0.351-0.142-0.617-0.353-0.799
			c-0.21-0.182-0.472-0.272-0.784-0.272C384.916,28.285,384.653,28.382,384.466,28.574z"/>
		<path fill="#E30613" d="M391.146,27.211c0.017,0.002,0.055,0.004,0.113,0.007v1.355c-0.083-0.01-0.157-0.016-0.223-0.02
			c-0.064-0.003-0.117-0.004-0.157-0.004c-0.532,0-0.89,0.173-1.071,0.52c-0.103,0.194-0.153,0.494-0.153,0.899v2.417h-1.331v-5.057
			h1.262v0.882c0.203-0.337,0.382-0.567,0.533-0.691c0.247-0.207,0.568-0.311,0.965-0.311
			C391.108,27.209,391.129,27.21,391.146,27.211z"/>
		<path fill="#E30613" d="M395.812,27.329v3.048c0,0.288,0.033,0.504,0.102,0.649c0.12,0.257,0.355,0.385,0.706,0.385
			c0.449,0,0.757-0.182,0.923-0.547c0.086-0.198,0.13-0.459,0.13-0.784v-2.751h1.34v5.057h-1.285v-0.715
			c-0.012,0.016-0.043,0.062-0.092,0.14c-0.05,0.077-0.108,0.146-0.176,0.204c-0.207,0.186-0.406,0.312-0.6,0.381
			c-0.192,0.067-0.418,0.102-0.678,0.102c-0.746,0-1.248-0.27-1.508-0.807c-0.145-0.297-0.217-0.735-0.217-1.313v-3.048H395.812z"/>
		<path fill="#E30613" d="M404.288,27.619c0.331,0.274,0.496,0.728,0.496,1.362v3.404h-1.354v-3.075
			c0-0.267-0.035-0.471-0.105-0.612c-0.129-0.26-0.375-0.39-0.737-0.39c-0.444,0-0.75,0.19-0.916,0.57
			c-0.086,0.201-0.129,0.458-0.129,0.771v2.736h-1.322v-5.047h1.28v0.737c0.17-0.26,0.33-0.446,0.48-0.562
			c0.271-0.203,0.614-0.306,1.03-0.306C403.531,27.209,403.957,27.346,404.288,27.619z"/>
		<path fill="#E30613" d="M408.609,27.411c0.238,0.134,0.432,0.32,0.58,0.559v-2.412h1.341v6.828h-1.285v-0.7
			c-0.188,0.3-0.403,0.518-0.645,0.653c-0.241,0.137-0.541,0.205-0.9,0.205c-0.591,0-1.088-0.239-1.491-0.717
			c-0.403-0.479-0.605-1.091-0.605-1.84c0-0.862,0.199-1.541,0.597-2.036c0.396-0.495,0.928-0.742,1.593-0.742
			C408.1,27.209,408.371,27.276,408.609,27.411z M408.935,31.013c0.194-0.278,0.292-0.639,0.292-1.081
			c0-0.618-0.156-1.061-0.469-1.326c-0.191-0.161-0.414-0.241-0.668-0.241c-0.387,0-0.67,0.146-0.851,0.438
			c-0.182,0.292-0.271,0.654-0.271,1.087c0,0.468,0.092,0.841,0.275,1.121c0.185,0.279,0.464,0.42,0.838,0.42
			S408.739,31.291,408.935,31.013z"/>
		<path fill="#E30613" d="M413.625,33.355c0.074,0.006,0.127,0.01,0.157,0.012c0.031,0.001,0.059,0.002,0.084,0.002
			c0.13,0,0.228-0.032,0.294-0.095c0.066-0.063,0.101-0.187,0.101-0.369v-5.553h1.321v5.576c0,0.51-0.101,0.888-0.302,1.132
			c-0.2,0.244-0.595,0.366-1.183,0.366c-0.04,0-0.1-0.002-0.179-0.005c-0.078-0.003-0.177-0.006-0.294-0.009V33.355z
			 M415.582,26.727h-1.321v-1.22h1.321V26.727z"/>
		<path fill="#E30613" d="M420.049,27.432c0.353,0.158,0.644,0.407,0.873,0.748c0.207,0.301,0.342,0.649,0.403,1.046
			c0.035,0.232,0.05,0.566,0.043,1.003h-3.683c0.021,0.508,0.197,0.863,0.529,1.067c0.202,0.127,0.444,0.189,0.729,0.189
			c0.302,0,0.546-0.077,0.734-0.231c0.103-0.083,0.193-0.199,0.272-0.348h1.35c-0.036,0.3-0.199,0.604-0.49,0.913
			c-0.453,0.492-1.087,0.738-1.902,0.738c-0.673,0-1.267-0.208-1.781-0.622c-0.514-0.415-0.771-1.09-0.771-2.024
			c0-0.876,0.232-1.548,0.696-2.015c0.465-0.468,1.067-0.701,1.809-0.701C419.3,27.195,419.695,27.274,420.049,27.432z
			 M418.07,28.574c-0.187,0.192-0.304,0.453-0.352,0.782h2.277c-0.024-0.351-0.142-0.617-0.353-0.799
			c-0.21-0.182-0.472-0.272-0.784-0.272C418.521,28.285,418.258,28.382,418.07,28.574z"/>
		<path fill="#E30613" d="M421.423,28.317v-0.941h0.705v-1.41h1.308v1.41h0.821v0.941h-0.821v2.672c0,0.207,0.026,0.337,0.079,0.388
			s0.213,0.076,0.482,0.076c0.04,0,0.083,0,0.128-0.002c0.044-0.002,0.089-0.004,0.132-0.007v0.988l-0.626,0.022
			c-0.625,0.021-1.052-0.086-1.28-0.324c-0.148-0.151-0.223-0.386-0.223-0.7v-3.113H421.423z"/>
		<path fill="#E30613" d="M424.723,28.405v-1.076h3.999v1.1L426.24,31.3h2.569v1.086h-4.263v-1.029l2.506-2.951H424.723z"/>
		<path fill="#E30613" d="M429.146,28.317v-0.941h0.705v-1.41h1.308v1.41h0.821v0.941h-0.821v2.672c0,0.207,0.026,0.337,0.079,0.388
			s0.213,0.076,0.482,0.076c0.04,0,0.083,0,0.128-0.002c0.044-0.002,0.089-0.004,0.132-0.007v0.988l-0.626,0.022
			c-0.625,0.021-1.052-0.086-1.28-0.324c-0.148-0.151-0.223-0.386-0.223-0.7v-3.113H429.146z"/>
		<path fill="#E30613" d="M432.711,30.999h1.405v1.387h-1.405V30.999z"/>
	</g>
</g>
<rect x="565.938" y="9.89" fill="#FFED00" width="29.342" height="28.664"/>
<polygon fill="#E30613" points="-7.098,9.212 -7.098,10.565 444.148,10.565 444.148,37.874 -7.098,37.876 -7.098,39.229 
	444.902,39.229 444.902,9.212 "/>
<rect x="566.614" y="10.564" fill="none" width="28.666" height="27.31"/>
<polygon fill="#E30613" points="566.614,37.874 566.614,10.564 595.28,10.564 595.28,9.21 565.259,9.21 565.259,39.228 
	565.937,39.228 595.28,39.228 595.28,37.874 "/>
<g>
	<path fill="#E30613" d="M43.697,21.628c0.264,0.367,0.396,0.807,0.396,1.318c0,0.527-0.133,0.951-0.4,1.271
		c-0.149,0.18-0.369,0.344-0.659,0.492c0.44,0.16,0.773,0.414,0.998,0.762s0.336,0.77,0.336,1.266c0,0.512-0.128,0.971-0.385,1.377
		c-0.163,0.27-0.367,0.496-0.611,0.68c-0.276,0.211-0.601,0.356-0.976,0.434c-0.375,0.078-0.781,0.117-1.22,0.117h-3.892v-8.637
		h4.174C42.512,20.724,43.258,21.031,43.697,21.628z M39.007,22.208v1.904h2.099c0.375,0,0.679-0.071,0.914-0.214
		c0.233-0.143,0.351-0.396,0.351-0.759c0-0.402-0.155-0.668-0.464-0.797c-0.267-0.09-0.607-0.135-1.021-0.135H39.007z
		 M39.007,25.542v2.303h2.097c0.375,0,0.666-0.051,0.875-0.152c0.378-0.188,0.567-0.547,0.567-1.078c0-0.449-0.184-0.758-0.55-0.926
		c-0.205-0.094-0.492-0.143-0.863-0.146H39.007z"/>
	<path fill="#E30613" d="M49.948,23.088c0.446,0.2,0.813,0.515,1.104,0.945c0.261,0.379,0.431,0.819,0.509,1.32
		c0.045,0.293,0.063,0.716,0.055,1.268h-4.651c0.026,0.641,0.249,1.09,0.668,1.348c0.255,0.16,0.562,0.24,0.921,0.24
		c0.38,0,0.689-0.098,0.927-0.293c0.13-0.105,0.245-0.252,0.344-0.439h1.705c-0.045,0.379-0.251,0.764-0.619,1.154
		c-0.572,0.622-1.373,0.932-2.403,0.932c-0.85,0-1.6-0.262-2.25-0.786c-0.65-0.524-0.975-1.376-0.975-2.557
		c0-1.106,0.293-1.955,0.88-2.545s1.348-0.886,2.284-0.886C49.002,22.789,49.503,22.888,49.948,23.088z M47.45,24.53
		c-0.236,0.244-0.384,0.573-0.445,0.989h2.877c-0.03-0.443-0.179-0.78-0.445-1.009s-0.596-0.344-0.99-0.344
		C48.019,24.166,47.686,24.287,47.45,24.53z"/>
	<path fill="#E30613" d="M56.395,22.958h1.793l-2.306,6.387h-1.761l-2.291-6.387h1.875l1.33,4.711L56.395,22.958z"/>
	<path fill="#E30613" d="M64.46,28.564c-0.539,0.666-1.357,0.999-2.455,0.999s-1.916-0.333-2.455-0.999s-0.809-1.467-0.809-2.403
		c0-0.921,0.27-1.719,0.809-2.395c0.539-0.675,1.357-1.013,2.455-1.013s1.916,0.338,2.455,1.013
		c0.539,0.675,0.809,1.474,0.809,2.395C65.269,27.097,65,27.898,64.46,28.564z M60.066,20.597h1.529v1.389h-1.529V20.597z
		 M63.125,27.641c0.262-0.347,0.393-0.841,0.393-1.48s-0.131-1.132-0.393-1.478c-0.262-0.345-0.637-0.518-1.125-0.518
		s-0.864,0.173-1.128,0.518c-0.264,0.345-0.396,0.838-0.396,1.478s0.132,1.133,0.396,1.48s0.64,0.521,1.128,0.521
		S62.863,27.988,63.125,27.641z M62.41,20.597h1.529v1.389H62.41V20.597z"/>
	<path fill="#E30613" d="M68.169,29.346H66.5v-8.637h1.67V29.346z"/>
	<path fill="#E30613" d="M69.781,20.738h1.641v4.659l2.106-2.409h2.076l-2.289,2.379l2.378,3.979h-2.032l-1.547-2.729l-0.692,0.719
		v2.01h-1.641V20.738z"/>
	<path fill="#E30613" d="M80.634,23.088c0.446,0.2,0.813,0.515,1.104,0.945c0.261,0.379,0.431,0.819,0.509,1.32
		c0.045,0.293,0.063,0.716,0.055,1.268H77.65c0.026,0.641,0.249,1.09,0.668,1.348c0.255,0.16,0.562,0.24,0.921,0.24
		c0.38,0,0.689-0.098,0.927-0.293c0.13-0.105,0.245-0.252,0.344-0.439h1.705c-0.045,0.379-0.251,0.764-0.619,1.154
		c-0.572,0.622-1.373,0.932-2.403,0.932c-0.85,0-1.6-0.262-2.25-0.786c-0.65-0.524-0.975-1.376-0.975-2.557
		c0-1.106,0.293-1.955,0.88-2.545s1.348-0.886,2.284-0.886C79.688,22.789,80.188,22.888,80.634,23.088z M78.136,24.53
		c-0.236,0.244-0.384,0.573-0.445,0.989h2.877c-0.03-0.443-0.179-0.78-0.445-1.009s-0.596-0.344-0.99-0.344
		C78.704,24.166,78.372,24.287,78.136,24.53z"/>
	<path fill="#E30613" d="M86.694,22.809c0.021,0.002,0.069,0.005,0.144,0.009v1.711c-0.105-0.012-0.199-0.02-0.281-0.023
		S86.408,24.5,86.357,24.5c-0.672,0-1.123,0.219-1.354,0.656c-0.129,0.246-0.193,0.625-0.193,1.137v3.053h-1.682v-6.387h1.594v1.113
		c0.258-0.426,0.482-0.717,0.674-0.873c0.312-0.262,0.719-0.393,1.219-0.393C86.646,22.806,86.672,22.807,86.694,22.809z"/>
	<path fill="#E30613" d="M89.48,22.958v3.85c0,0.363,0.043,0.637,0.128,0.82c0.151,0.324,0.449,0.486,0.892,0.486
		c0.567,0,0.956-0.23,1.166-0.691c0.108-0.25,0.163-0.58,0.163-0.99v-3.475h1.693v6.387H91.9v-0.903
		c-0.016,0.02-0.055,0.078-0.117,0.176c-0.062,0.098-0.136,0.184-0.222,0.258c-0.261,0.235-0.513,0.395-0.757,0.481
		c-0.243,0.086-0.529,0.129-0.856,0.129c-0.942,0-1.578-0.34-1.905-1.02c-0.183-0.375-0.274-0.928-0.274-1.658v-3.85H89.48z"/>
	<path fill="#E30613" d="M100.296,23.325c0.418,0.346,0.627,0.919,0.627,1.72v4.301h-1.711V25.46c0-0.336-0.044-0.594-0.134-0.773
		c-0.163-0.328-0.473-0.492-0.931-0.492c-0.562,0-0.948,0.24-1.157,0.721c-0.109,0.254-0.163,0.578-0.163,0.973v3.458h-1.67V22.97
		h1.617v0.932c0.214-0.328,0.416-0.564,0.607-0.709c0.342-0.258,0.776-0.387,1.301-0.387C99.34,22.806,99.878,22.979,100.296,23.325
		z"/>
	<path fill="#E30613" d="M105.636,22.953c0.405,0.168,0.733,0.477,0.983,0.926v-0.92h1.629v6.059c0,0.824-0.139,1.445-0.416,1.863
		c-0.477,0.719-1.391,1.078-2.742,1.078c-0.816,0-1.482-0.16-1.998-0.48s-0.801-0.799-0.855-1.436h1.816
		c0.047,0.195,0.123,0.336,0.229,0.422c0.18,0.152,0.482,0.229,0.908,0.229c0.602,0,1.004-0.201,1.207-0.604
		c0.133-0.258,0.199-0.691,0.199-1.301v-0.41c-0.16,0.273-0.332,0.479-0.516,0.615c-0.332,0.254-0.764,0.381-1.295,0.381
		c-0.82,0-1.476-0.289-1.966-0.865c-0.49-0.576-0.735-1.356-0.735-2.341c0-0.949,0.236-1.747,0.708-2.394s1.141-0.97,2.007-0.97
		C105.119,22.806,105.397,22.855,105.636,22.953z M106.204,27.532c0.269-0.295,0.403-0.765,0.403-1.409
		c0-0.605-0.127-1.066-0.382-1.383s-0.596-0.475-1.024-0.475c-0.583,0-0.986,0.275-1.208,0.826
		c-0.117,0.293-0.175,0.654-0.175,1.084c0,0.371,0.062,0.701,0.187,0.99c0.226,0.539,0.63,0.809,1.214,0.809
		C105.607,27.974,105.936,27.827,106.204,27.532z"/>
	<path fill="#E30613" d="M111.101,27.306c0.035,0.297,0.112,0.508,0.229,0.633c0.208,0.223,0.593,0.334,1.154,0.334
		c0.33,0,0.591-0.049,0.786-0.146s0.292-0.244,0.292-0.439c0-0.188-0.078-0.33-0.235-0.428c-0.156-0.098-0.739-0.266-1.747-0.504
		c-0.726-0.18-1.237-0.404-1.534-0.674c-0.297-0.266-0.445-0.648-0.445-1.148c0-0.59,0.232-1.097,0.696-1.521
		s1.117-0.636,1.958-0.636c0.798,0,1.449,0.159,1.952,0.478s0.792,0.868,0.866,1.649h-1.67c-0.023-0.215-0.084-0.385-0.182-0.51
		c-0.184-0.227-0.498-0.34-0.94-0.34c-0.364,0-0.624,0.057-0.779,0.17s-0.232,0.246-0.232,0.398c0,0.191,0.082,0.33,0.247,0.416
		c0.164,0.09,0.745,0.244,1.743,0.463c0.666,0.156,1.164,0.393,1.496,0.709c0.328,0.32,0.492,0.721,0.492,1.201
		c0,0.633-0.236,1.149-0.708,1.55c-0.472,0.4-1.201,0.601-2.187,0.601c-1.006,0-1.749-0.213-2.228-0.636
		c-0.479-0.424-0.719-0.964-0.719-1.62H111.101z"/>
	<path fill="#E30613" d="M117.775,27.306c0.035,0.297,0.112,0.508,0.229,0.633c0.208,0.223,0.593,0.334,1.154,0.334
		c0.33,0,0.591-0.049,0.786-0.146s0.292-0.244,0.292-0.439c0-0.188-0.078-0.33-0.235-0.428c-0.156-0.098-0.739-0.266-1.747-0.504
		c-0.726-0.18-1.237-0.404-1.534-0.674c-0.297-0.266-0.445-0.648-0.445-1.148c0-0.59,0.232-1.097,0.696-1.521
		s1.117-0.636,1.958-0.636c0.798,0,1.449,0.159,1.952,0.478s0.792,0.868,0.866,1.649h-1.67c-0.023-0.215-0.084-0.385-0.182-0.51
		c-0.184-0.227-0.498-0.34-0.94-0.34c-0.364,0-0.624,0.057-0.779,0.17s-0.232,0.246-0.232,0.398c0,0.191,0.082,0.33,0.247,0.416
		c0.164,0.09,0.745,0.244,1.743,0.463c0.666,0.156,1.164,0.393,1.496,0.709c0.328,0.32,0.492,0.721,0.492,1.201
		c0,0.633-0.236,1.149-0.708,1.55c-0.472,0.4-1.201,0.601-2.187,0.601c-1.006,0-1.749-0.213-2.228-0.636
		c-0.479-0.424-0.719-0.964-0.719-1.62H117.775z"/>
	<path fill="#E30613" d="M126.974,25.25c-0.031-0.238-0.112-0.453-0.241-0.645c-0.188-0.258-0.48-0.387-0.875-0.387
		c-0.564,0-0.95,0.279-1.157,0.838c-0.11,0.296-0.165,0.689-0.165,1.181c0,0.468,0.055,0.844,0.165,1.128
		c0.2,0.531,0.576,0.797,1.127,0.797c0.392,0,0.67-0.105,0.834-0.316c0.165-0.211,0.265-0.484,0.3-0.82h1.705
		c-0.039,0.508-0.223,0.988-0.551,1.441c-0.524,0.731-1.3,1.096-2.329,1.096s-1.785-0.305-2.27-0.915
		c-0.485-0.609-0.728-1.399-0.728-2.37c0-1.096,0.268-1.948,0.804-2.558c0.536-0.609,1.274-0.914,2.217-0.914
		c0.802,0,1.458,0.18,1.968,0.539s0.812,0.994,0.906,1.904H126.974z"/>
	<path fill="#E30613" d="M134.417,22.994c0.321,0.137,0.584,0.346,0.791,0.628c0.175,0.238,0.282,0.484,0.321,0.736
		c0.039,0.252,0.059,0.664,0.059,1.234v3.754h-1.705v-3.89c0-0.344-0.058-0.622-0.174-0.833c-0.151-0.297-0.438-0.446-0.861-0.446
		c-0.438,0-0.771,0.147-0.998,0.443c-0.227,0.295-0.34,0.717-0.34,1.264v3.461h-1.67v-8.608h1.67v3.047
		c0.241-0.371,0.52-0.63,0.837-0.776c0.317-0.146,0.651-0.22,1.001-0.22C133.74,22.789,134.097,22.857,134.417,22.994z"/>
	<path fill="#E30613" d="M138.822,22.958v3.85c0,0.363,0.043,0.637,0.128,0.82c0.151,0.324,0.449,0.486,0.892,0.486
		c0.567,0,0.956-0.23,1.166-0.691c0.108-0.25,0.163-0.58,0.163-0.99v-3.475h1.693v6.387h-1.623v-0.903
		c-0.016,0.02-0.055,0.078-0.117,0.176c-0.062,0.098-0.136,0.184-0.222,0.258c-0.261,0.235-0.513,0.395-0.757,0.481
		c-0.243,0.086-0.529,0.129-0.856,0.129c-0.942,0-1.578-0.34-1.905-1.02c-0.183-0.375-0.274-0.928-0.274-1.658v-3.85H138.822z"/>
	<path fill="#E30613" d="M143.832,24.207v-1.189h0.891v-1.781h1.652v1.781h1.037v1.189h-1.037v3.375c0,0.262,0.033,0.425,0.1,0.489
		s0.27,0.097,0.609,0.097c0.051,0,0.104-0.001,0.161-0.003s0.112-0.005,0.167-0.009v1.249l-0.791,0.029
		c-0.789,0.027-1.328-0.109-1.617-0.41c-0.188-0.192-0.281-0.487-0.281-0.885v-3.932H143.832z"/>
	<path fill="#E30613" d="M148.121,24.318v-1.359h5.051v1.389l-3.134,3.627h3.245v1.372h-5.385v-1.301l3.166-3.727H148.121z"/>
	<path fill="#E30613" d="M164.339,22.238h-4.57v1.834h4.195v1.5h-4.195v2.221h4.781v1.553h-6.545v-8.637h6.334V22.238z"/>
	<path fill="#E30613" d="M169.37,22.809c0.021,0.002,0.069,0.005,0.144,0.009v1.711c-0.105-0.012-0.199-0.02-0.281-0.023
		s-0.148-0.006-0.199-0.006c-0.672,0-1.123,0.219-1.354,0.656c-0.129,0.246-0.193,0.625-0.193,1.137v3.053h-1.682v-6.387h1.594
		v1.113c0.258-0.426,0.482-0.717,0.674-0.873c0.312-0.262,0.719-0.393,1.219-0.393C169.322,22.806,169.348,22.807,169.37,22.809z"/>
	<path fill="#E30613" d="M172.197,29.346h-1.67v-8.637h1.67V29.346z"/>
	<path fill="#E30613" d="M176.355,25.46c0.311-0.039,0.533-0.088,0.667-0.146c0.24-0.102,0.36-0.26,0.36-0.475
		c0-0.262-0.092-0.442-0.276-0.542s-0.454-0.149-0.811-0.149c-0.4,0-0.683,0.098-0.849,0.293c-0.119,0.145-0.198,0.34-0.238,0.586
		h-1.611c0.035-0.559,0.192-1.018,0.471-1.377c0.443-0.562,1.205-0.844,2.283-0.844c0.702,0,1.326,0.139,1.872,0.416
		s0.818,0.801,0.818,1.57v2.93c0,0.203,0.004,0.449,0.012,0.738c0.012,0.219,0.045,0.367,0.1,0.445s0.137,0.143,0.246,0.194v0.246
		h-1.816c-0.051-0.129-0.086-0.25-0.105-0.364c-0.02-0.113-0.035-0.242-0.047-0.387c-0.232,0.25-0.499,0.463-0.802,0.639
		c-0.361,0.207-0.77,0.311-1.226,0.311c-0.582,0-1.062-0.166-1.441-0.496c-0.379-0.33-0.569-0.797-0.569-1.403
		c0-0.785,0.305-1.354,0.915-1.705c0.334-0.191,0.826-0.328,1.476-0.41L176.355,25.46z M177.376,26.24
		c-0.107,0.066-0.215,0.12-0.324,0.161s-0.258,0.079-0.449,0.114l-0.38,0.07c-0.356,0.062-0.612,0.139-0.768,0.229
		c-0.263,0.152-0.395,0.389-0.395,0.709c0,0.285,0.08,0.491,0.241,0.618c0.16,0.127,0.355,0.19,0.586,0.19
		c0.365,0,0.701-0.105,1.008-0.316s0.467-0.596,0.479-1.154V26.24z"/>
	<path fill="#E30613" d="M185.649,23.325c0.418,0.346,0.627,0.919,0.627,1.72v4.301h-1.711V25.46c0-0.336-0.044-0.594-0.134-0.773
		c-0.163-0.328-0.473-0.492-0.931-0.492c-0.562,0-0.948,0.24-1.157,0.721c-0.109,0.254-0.163,0.578-0.163,0.973v3.458h-1.67V22.97
		h1.617v0.932c0.214-0.328,0.416-0.564,0.607-0.709c0.342-0.258,0.776-0.387,1.301-0.387
		C184.694,22.806,185.231,22.979,185.649,23.325z"/>
	<path fill="#E30613" d="M190.989,22.953c0.405,0.168,0.733,0.477,0.983,0.926v-0.92h1.629v6.059c0,0.824-0.139,1.445-0.416,1.863
		c-0.477,0.719-1.391,1.078-2.742,1.078c-0.816,0-1.482-0.16-1.998-0.48s-0.801-0.799-0.855-1.436h1.816
		c0.047,0.195,0.123,0.336,0.229,0.422c0.18,0.152,0.482,0.229,0.908,0.229c0.602,0,1.004-0.201,1.207-0.604
		c0.133-0.258,0.199-0.691,0.199-1.301v-0.41c-0.16,0.273-0.332,0.479-0.516,0.615c-0.332,0.254-0.764,0.381-1.295,0.381
		c-0.82,0-1.476-0.289-1.966-0.865c-0.49-0.576-0.735-1.356-0.735-2.341c0-0.949,0.236-1.747,0.708-2.394s1.141-0.97,2.007-0.97
		C190.472,22.806,190.751,22.855,190.989,22.953z M191.558,27.532c0.269-0.295,0.403-0.765,0.403-1.409
		c0-0.605-0.127-1.066-0.382-1.383s-0.596-0.475-1.024-0.475c-0.583,0-0.986,0.275-1.208,0.826
		c-0.117,0.293-0.175,0.654-0.175,1.084c0,0.371,0.062,0.701,0.187,0.99c0.226,0.539,0.63,0.809,1.214,0.809
		C190.96,27.974,191.29,27.827,191.558,27.532z"/>
	<path fill="#E30613" d="M199.321,23.088c0.446,0.2,0.813,0.515,1.104,0.945c0.261,0.379,0.431,0.819,0.509,1.32
		c0.045,0.293,0.063,0.716,0.055,1.268h-4.651c0.026,0.641,0.249,1.09,0.668,1.348c0.255,0.16,0.562,0.24,0.921,0.24
		c0.38,0,0.689-0.098,0.927-0.293c0.13-0.105,0.245-0.252,0.344-0.439h1.705c-0.045,0.379-0.251,0.764-0.619,1.154
		c-0.572,0.622-1.373,0.932-2.403,0.932c-0.85,0-1.6-0.262-2.25-0.786c-0.65-0.524-0.975-1.376-0.975-2.557
		c0-1.106,0.293-1.955,0.88-2.545s1.348-0.886,2.284-0.886C198.375,22.789,198.876,22.888,199.321,23.088z M196.823,24.53
		c-0.236,0.244-0.384,0.573-0.445,0.989h2.877c-0.03-0.443-0.179-0.78-0.445-1.009s-0.596-0.344-0.99-0.344
		C197.392,24.166,197.059,24.287,196.823,24.53z"/>
	<path fill="#E30613" d="M206.983,23.325c0.418,0.346,0.627,0.919,0.627,1.72v4.301H205.9V25.46c0-0.336-0.044-0.594-0.134-0.773
		c-0.163-0.328-0.473-0.492-0.931-0.492c-0.562,0-0.948,0.24-1.157,0.721c-0.109,0.254-0.163,0.578-0.163,0.973v3.458h-1.67V22.97
		h1.617v0.932c0.214-0.328,0.416-0.564,0.607-0.709c0.342-0.258,0.776-0.387,1.301-0.387
		C206.028,22.806,206.565,22.979,206.983,23.325z"/>
	<path fill="#E30613" d="M208.66,25.208h3.27v1.582h-3.27V25.208z"/>
	<path fill="#E30613" d="M213.283,29.346v-8.637h1.793v3.293h3.357v-3.293h1.793v8.637h-1.793V25.49h-3.357v3.856H213.283z"/>
	<path fill="#E30613" d="M227.152,28.564c-0.539,0.666-1.357,0.999-2.455,0.999s-1.916-0.333-2.455-0.999s-0.809-1.467-0.809-2.403
		c0-0.921,0.27-1.719,0.809-2.395c0.539-0.675,1.357-1.013,2.455-1.013s1.916,0.338,2.455,1.013
		c0.539,0.675,0.809,1.474,0.809,2.395C227.96,27.097,227.691,27.898,227.152,28.564z M222.757,20.597h1.529v1.389h-1.529V20.597z
		 M225.816,27.641c0.262-0.347,0.393-0.841,0.393-1.48s-0.131-1.132-0.393-1.478c-0.262-0.345-0.637-0.518-1.125-0.518
		s-0.864,0.173-1.128,0.518c-0.264,0.345-0.396,0.838-0.396,1.478s0.132,1.133,0.396,1.48s0.64,0.521,1.128,0.521
		S225.554,27.988,225.816,27.641z M225.101,20.597h1.529v1.389h-1.529V20.597z"/>
	<path fill="#E30613" d="M232.976,25.25c-0.031-0.238-0.112-0.453-0.241-0.645c-0.188-0.258-0.48-0.387-0.875-0.387
		c-0.564,0-0.95,0.279-1.157,0.838c-0.11,0.296-0.165,0.689-0.165,1.181c0,0.468,0.055,0.844,0.165,1.128
		c0.2,0.531,0.576,0.797,1.127,0.797c0.392,0,0.67-0.105,0.834-0.316c0.165-0.211,0.265-0.484,0.3-0.82h1.705
		c-0.039,0.508-0.223,0.988-0.551,1.441c-0.524,0.731-1.3,1.096-2.329,1.096s-1.785-0.305-2.27-0.915
		c-0.485-0.609-0.728-1.399-0.728-2.37c0-1.096,0.268-1.948,0.804-2.558c0.536-0.609,1.274-0.914,2.217-0.914
		c0.802,0,1.458,0.18,1.968,0.539s0.812,0.994,0.906,1.904H232.976z"/>
	<path fill="#E30613" d="M240.419,22.994c0.321,0.137,0.584,0.346,0.791,0.628c0.175,0.238,0.282,0.484,0.321,0.736
		c0.039,0.252,0.059,0.664,0.059,1.234v3.754h-1.705v-3.89c0-0.344-0.058-0.622-0.174-0.833c-0.151-0.297-0.438-0.446-0.861-0.446
		c-0.438,0-0.771,0.147-0.998,0.443c-0.227,0.295-0.34,0.717-0.34,1.264v3.461h-1.67v-8.608h1.67v3.047
		c0.241-0.371,0.52-0.63,0.837-0.776c0.317-0.146,0.651-0.22,1.001-0.22C239.742,22.789,240.099,22.857,240.419,22.994z"/>
	<path fill="#E30613" d="M244.455,27.306c0.035,0.297,0.112,0.508,0.229,0.633c0.208,0.223,0.593,0.334,1.154,0.334
		c0.33,0,0.591-0.049,0.786-0.146s0.292-0.244,0.292-0.439c0-0.188-0.078-0.33-0.235-0.428c-0.156-0.098-0.739-0.266-1.747-0.504
		c-0.726-0.18-1.237-0.404-1.534-0.674c-0.297-0.266-0.445-0.648-0.445-1.148c0-0.59,0.232-1.097,0.696-1.521
		s1.117-0.636,1.958-0.636c0.798,0,1.449,0.159,1.952,0.478s0.792,0.868,0.866,1.649h-1.67c-0.023-0.215-0.084-0.385-0.182-0.51
		c-0.184-0.227-0.498-0.34-0.94-0.34c-0.364,0-0.624,0.057-0.779,0.17s-0.232,0.246-0.232,0.398c0,0.191,0.082,0.33,0.247,0.416
		c0.164,0.09,0.745,0.244,1.743,0.463c0.666,0.156,1.164,0.393,1.496,0.709c0.328,0.32,0.492,0.721,0.492,1.201
		c0,0.633-0.236,1.149-0.708,1.55c-0.472,0.4-1.201,0.601-2.187,0.601c-1.006,0-1.749-0.213-2.228-0.636
		c-0.479-0.424-0.719-0.964-0.719-1.62H244.455z"/>
	<path fill="#E30613" d="M249.177,24.207v-1.189h0.891v-1.781h1.652v1.781h1.037v1.189h-1.037v3.375c0,0.262,0.033,0.425,0.1,0.489
		s0.27,0.097,0.609,0.097c0.051,0,0.104-0.001,0.161-0.003s0.112-0.005,0.167-0.009v1.249l-0.791,0.029
		c-0.789,0.027-1.328-0.109-1.617-0.41c-0.188-0.192-0.281-0.487-0.281-0.885v-3.932H249.177z"/>
	<path fill="#E30613" d="M256.359,25.46c0.311-0.039,0.533-0.088,0.667-0.146c0.24-0.102,0.36-0.26,0.36-0.475
		c0-0.262-0.092-0.442-0.276-0.542s-0.454-0.149-0.811-0.149c-0.4,0-0.683,0.098-0.849,0.293c-0.119,0.145-0.198,0.34-0.238,0.586
		h-1.611c0.035-0.559,0.192-1.018,0.471-1.377c0.443-0.562,1.205-0.844,2.283-0.844c0.702,0,1.326,0.139,1.872,0.416
		s0.818,0.801,0.818,1.57v2.93c0,0.203,0.004,0.449,0.012,0.738c0.012,0.219,0.045,0.367,0.1,0.445s0.137,0.143,0.246,0.194v0.246
		h-1.816c-0.051-0.129-0.086-0.25-0.105-0.364c-0.02-0.113-0.035-0.242-0.047-0.387c-0.232,0.25-0.499,0.463-0.802,0.639
		c-0.361,0.207-0.77,0.311-1.226,0.311c-0.582,0-1.062-0.166-1.441-0.496c-0.379-0.33-0.569-0.797-0.569-1.403
		c0-0.785,0.305-1.354,0.915-1.705c0.334-0.191,0.826-0.328,1.476-0.41L256.359,25.46z M257.38,26.24
		c-0.107,0.066-0.215,0.12-0.324,0.161s-0.258,0.079-0.449,0.114l-0.38,0.07c-0.356,0.062-0.612,0.139-0.768,0.229
		c-0.263,0.152-0.395,0.389-0.395,0.709c0,0.285,0.08,0.491,0.241,0.618c0.16,0.127,0.355,0.19,0.586,0.19
		c0.365,0,0.701-0.105,1.008-0.316s0.467-0.596,0.479-1.154V26.24z"/>
	<path fill="#E30613" d="M263.89,23.061c0.301,0.17,0.545,0.405,0.732,0.706V20.72h1.693v8.625h-1.623V28.46
		c-0.238,0.379-0.51,0.655-0.814,0.827s-0.684,0.258-1.137,0.258c-0.746,0-1.374-0.303-1.884-0.906
		c-0.51-0.604-0.765-1.378-0.765-2.323c0-1.09,0.251-1.947,0.753-2.572s1.173-0.938,2.013-0.938
		C263.246,22.806,263.589,22.891,263.89,23.061z M264.3,27.611c0.246-0.352,0.369-0.807,0.369-1.365c0-0.781-0.197-1.34-0.592-1.676
		c-0.242-0.203-0.523-0.305-0.844-0.305c-0.488,0-0.847,0.185-1.075,0.554s-0.343,0.827-0.343,1.374c0,0.59,0.116,1.062,0.349,1.415
		s0.585,0.53,1.058,0.53S264.054,27.962,264.3,27.611z"/>
	<path fill="#E30613" d="M267.177,24.207v-1.189h0.891v-1.781h1.652v1.781h1.037v1.189h-1.037v3.375c0,0.262,0.033,0.425,0.1,0.489
		s0.27,0.097,0.609,0.097c0.051,0,0.104-0.001,0.161-0.003s0.112-0.005,0.167-0.009v1.249l-0.791,0.029
		c-0.789,0.027-1.328-0.109-1.617-0.41c-0.188-0.192-0.281-0.487-0.281-0.885v-3.932H267.177z"/>
</g>
<g>
</g>
<g>
</g>
<g>
</g>
<g>
</g>
<g>
</g>
<g>
</g>
</svg>
